<svg width="506" height="506" viewBox="0 0 506 506" fill="none" xmlns="http://www.w3.org/2000/svg">
<rect width="506" height="506" rx="120" fill="#623CE6"/>
<path d="M365.574 248.467C360.593 243.458 353.981 240.76 346.948 240.87C341.447 240.956 336.35 242.842 332.19 245.972C327.965 235.239 317.559 227.63 305.424 227.63C299.436 227.63 293.869 229.482 289.259 232.648V122.658C289.259 106.664 276.348 93.6528 260.478 93.6528C247.441 93.6528 236.4 102.434 232.875 114.435C228.05 110.754 222.041 108.567 215.536 108.567C207.853 108.567 200.626 111.581 195.182 117.057C189.744 122.537 186.75 129.822 186.75 137.57V260.483C184.457 260.065 182.118 259.855 179.747 259.855C165.436 259.855 153.794 271.57 153.794 285.971C153.794 287.147 153.876 288.35 154.038 289.543C154.83 295.403 153.099 301.345 149.288 305.846L140.697 315.986C132.512 325.636 130.684 339.297 136.036 350.786L161.205 404.905C165.448 414.026 172.079 421.786 180.384 427.348C185.412 430.716 189.53 433.166 192.619 434.629C194.843 435.685 196.713 437.347 198.034 439.446C199.349 441.527 200.044 443.935 200.044 446.409V469.643C200.044 473.154 202.868 476 206.352 476H356.237C359.721 476 362.545 473.154 362.545 469.643C362.545 455.448 364.548 441.344 368.499 427.721C371.567 417.144 373.123 406.191 373.123 395.168V266.835C373.124 259.896 370.444 253.374 365.574 248.467ZM356.391 424.155C352.695 436.902 350.57 450.035 350.054 463.287H212.661V446.41C212.661 441.513 211.284 436.744 208.683 432.628C206.085 428.499 202.39 425.212 197.99 423.125C195.49 421.942 191.817 419.74 187.367 416.76C180.987 412.487 175.89 406.522 172.628 399.509L147.457 345.386C144.205 338.405 145.316 330.108 150.288 324.245L158.882 314.101C165.024 306.847 167.814 297.271 166.537 287.823C166.45 287.186 166.409 286.58 166.409 285.971C166.409 278.581 172.392 272.569 179.746 272.569C182.142 272.569 184.485 272.885 186.749 273.51V339.868C186.749 343.38 189.573 346.226 193.057 346.226C196.541 346.226 199.365 343.38 199.365 339.868V137.571C199.365 133.219 201.046 129.127 204.098 126.053C207.155 122.976 211.218 121.282 215.535 121.282C224.356 121.282 231.548 128.439 231.696 137.293V270.666C231.696 274.177 234.52 277.023 238.004 277.023C241.488 277.023 244.312 274.177 244.312 270.666V122.659C244.312 113.676 251.563 106.368 260.477 106.368C269.39 106.368 276.642 113.676 276.642 122.659V256.635C276.642 260.146 279.466 262.992 282.95 262.992C286.434 262.992 289.258 260.146 289.258 256.635C289.258 247.652 296.509 240.344 305.423 240.344C314.335 240.344 321.587 247.652 321.587 256.636L321.589 267.276C321.59 270.786 324.414 273.632 327.897 273.632C331.381 273.632 334.205 270.785 334.205 267.275C334.205 259.837 340.008 253.695 347.143 253.583C350.725 253.53 354.115 254.906 356.656 257.461C359.139 259.963 360.506 263.291 360.506 266.834V395.169H360.508C360.508 404.983 359.123 414.736 356.391 424.155Z" fill="white"/>
<path d="M298.672 133.335C298.672 136.846 301.496 139.692 304.98 139.692H335.23C338.714 139.692 341.538 136.846 341.538 133.335C341.538 129.823 338.714 126.977 335.23 126.977H304.98C301.496 126.977 298.672 129.823 298.672 133.335Z" fill="#CDFF42"/>
<path d="M140.793 139.692H171.042C174.526 139.692 177.35 136.846 177.35 133.335C177.35 129.823 174.526 126.977 171.042 126.977H140.793C137.309 126.977 134.485 129.823 134.485 133.335C134.485 136.846 137.31 139.692 140.793 139.692Z" fill="#CDFF42"/>
<path d="M286.653 90.6689C288.268 90.6689 289.882 90.0479 291.113 88.8068L311.207 68.5569C313.671 66.0737 313.671 62.0492 311.207 59.567C308.744 57.0838 304.749 57.0838 302.286 59.567L282.192 79.8169C279.728 82.3 279.728 86.3246 282.192 88.8068C283.423 90.0479 285.038 90.6689 286.653 90.6689Z" fill="#CDFF42"/>
<path d="M238.005 77.0892C241.489 77.0892 244.313 74.2431 244.313 70.732V35.3571C244.313 31.846 241.489 29 238.005 29C234.521 29 231.697 31.846 231.697 35.3571V70.732C231.697 74.2431 234.521 77.0892 238.005 77.0892Z" fill="#CDFF42"/>
<path d="M189.61 93.5648C190.841 94.8059 192.456 95.4269 194.07 95.4269C195.684 95.4269 197.299 94.8059 198.53 93.5648C200.994 91.0816 200.994 87.0571 198.53 84.5749L173.715 59.567C171.252 57.0838 167.258 57.0838 164.795 59.567C162.331 62.0502 162.331 66.0747 164.795 68.5569L189.61 93.5648Z" fill="#CDFF42"/>
</svg>
