<?xml version="1.0" standalone="no"?>
<!DOCTYPE svg PUBLIC "-//W3C//DTD SVG 20010904//EN"
 "http://www.w3.org/TR/2001/REC-SVG-20010904/DTD/svg10.dtd">
<svg version="1.0" xmlns="http://www.w3.org/2000/svg"
 width="700.000000pt" height="700.000000pt" viewBox="0 0 700.000000 700.000000"
 preserveAspectRatio="xMidYMid meet">
<metadata>
Created by potrace 1.14, written by Peter Selinger 2001-2017
</metadata>
<g transform="translate(0.000000,700.000000) scale(0.100000,-0.100000)"
fill="#000000" stroke="none">
<path d="M1509 6996 c-2 -2 -26 -6 -54 -10 -249 -29 -498 -121 -713 -263 -336
-222 -580 -561 -685 -953 -24 -90 -30 -119 -45 -235 -9 -67 -9 -3993 0 -4070
22 -185 91 -420 163 -550 13 -22 35 -64 51 -93 69 -128 239 -328 369 -435 86
-70 86 -70 135 -103 207 -142 470 -239 735 -272 77 -9 3988 -9 4075 0 71 8
195 32 250 50 263 82 450 182 629 336 189 165 332 355 433 578 39 85 93 242
101 291 3 15 8 39 11 53 10 42 16 82 24 145 4 33 7 962 7 2065 0 1857 -1 2011
-17 2090 -26 128 -26 128 -37 163 -6 18 -17 52 -25 77 -128 408 -443 772 -833
964 -139 68 -327 131 -448 150 -22 4 -56 10 -75 13 -36 7 -4043 16 -4051 9z"/>
</g>
</svg>
