<svg width="55" height="55" viewBox="0 0 55 55" fill="none" xmlns="http://www.w3.org/2000/svg">
<path d="M23.0005 17.0006V20.0006" stroke="#5843BE" stroke-width="1.5" stroke-miterlimit="10" stroke-linecap="round" stroke-linejoin="round"/>
<path d="M30.9995 17.0006V20.0006" stroke="#5843BE" stroke-width="1.5" stroke-miterlimit="10" stroke-linecap="round" stroke-linejoin="round"/>
<path d="M18.5005 24.0905H35.5005" stroke="#5843BE" stroke-width="1.5" stroke-miterlimit="10" stroke-linecap="round" stroke-linejoin="round"/>
<path d="M36 23.5006V32.0006C36 35.0006 34.5 37.0006 31 37.0006H23C19.5 37.0006 18 35.0006 18 32.0006V23.5006C18 20.5006 19.5 18.5006 23 18.5006H31C34.5 18.5006 36 20.5006 36 23.5006Z" stroke="#5843BE" stroke-width="1.5" stroke-miterlimit="10" stroke-linecap="round" stroke-linejoin="round"/>
<path d="M30.6937 28.6986H30.7027" stroke="#5843BE" stroke-width="2" stroke-linecap="round" stroke-linejoin="round"/>
<path d="M30.6937 31.6986H30.7027" stroke="#5843BE" stroke-width="2" stroke-linecap="round" stroke-linejoin="round"/>
<path d="M26.994 28.6986H27.0029" stroke="#5843BE" stroke-width="2" stroke-linecap="round" stroke-linejoin="round"/>
<path d="M26.994 31.6986H27.0029" stroke="#5843BE" stroke-width="2" stroke-linecap="round" stroke-linejoin="round"/>
<path d="M23.2958 28.6986H23.3048" stroke="#5843BE" stroke-width="2" stroke-linecap="round" stroke-linejoin="round"/>
<path d="M23.2958 31.6986H23.3048" stroke="#5843BE" stroke-width="2" stroke-linecap="round" stroke-linejoin="round"/>
<rect opacity="0.1" width="55" height="55" rx="15" fill="#5843BE"/>
</svg>
