<svg width="58" height="57" viewBox="0 0 58 57" fill="none" xmlns="http://www.w3.org/2000/svg">
<rect opacity="0.1" x="0.680176" width="57" height="57" rx="10" fill="#5843BE"/>
<path fill-rule="evenodd" clip-rule="evenodd" d="M28.845 35.0944C26.8725 35.0944 25.2684 33.4903 25.2684 31.5178C25.2684 29.5453 26.8725 27.9413 28.845 27.9413C30.8174 27.9413 32.4215 29.5453 32.4215 31.5178C32.4215 33.4903 30.8174 35.0944 28.845 35.0944ZM28.8448 26.153C25.8861 26.153 23.48 28.5591 23.48 31.5179C23.48 34.4766 25.8861 36.8827 28.8448 36.8827C31.8035 36.8827 34.2097 34.4766 34.2097 31.5179C34.2097 28.5591 31.8035 26.153 28.8448 26.153Z" fill="#5843BE"/>
<path fill-rule="evenodd" clip-rule="evenodd" d="M34.0682 23.199C32.9648 22.5033 31.7157 22.025 30.3763 21.8139L33.8107 16.3177H38.7741L34.0682 23.199ZM36.8919 31.5181C36.8919 35.9548 33.2822 39.5653 28.8446 39.5653C24.4079 39.5653 20.7974 35.9548 20.7974 31.5181C20.7974 27.0804 24.4079 23.4708 28.8446 23.4708C33.2822 23.4708 36.8919 27.0804 36.8919 31.5181ZM18.9154 16.3177H23.8788L27.3141 21.8139C25.9738 22.025 24.7255 22.5033 23.6213 23.199L18.9154 16.3177ZM41.2588 15.006C41.105 14.7127 40.8001 14.5294 40.4684 14.5294H33.3153C33.0068 14.5294 32.7207 14.6877 32.557 14.9497L28.8446 20.8894L25.1321 14.9497C24.9685 14.6877 24.6824 14.5294 24.3739 14.5294H17.2208C16.889 14.5294 16.585 14.7127 16.4303 15.006C16.2756 15.2993 16.2962 15.6542 16.4831 15.9279L22.1993 24.2881C20.2438 26.0871 19.009 28.6577 19.009 31.5181C19.009 36.941 23.4216 41.3536 28.8446 41.3536C34.2684 41.3536 38.6801 36.941 38.6801 31.5181C38.6801 28.6577 37.4453 26.0871 35.4898 24.2881L41.207 15.9279C41.3938 15.6542 41.4144 15.2993 41.2588 15.006Z" fill="#5843BE"/>
</svg>
