<svg width="55" height="55" viewBox="0 0 55 55" fill="none" xmlns="http://www.w3.org/2000/svg">
<path d="M24.0005 37.0006H30.0005C35.0005 37.0006 37.0005 35.0006 37.0005 30.0006V24.0006C37.0005 19.0006 35.0005 17.0006 30.0005 17.0006H24.0005C19.0005 17.0006 17.0005 19.0006 17.0005 24.0006V30.0006C17.0005 35.0006 19.0005 37.0006 24.0005 37.0006Z" stroke="#1A55AF" stroke-width="1.5" stroke-linecap="round" stroke-linejoin="round"/>
<path d="M23.0005 34.0006H31.0006C33.0006 34.0006 34.0006 33.0006 34.0006 31.0006V23.0006C34.0006 21.0006 33.0006 20.0006 31.0006 20.0006H23.0005C21.0005 20.0006 20.0005 21.0006 20.0005 23.0006V31.0006C20.0005 33.0006 21.0005 34.0006 23.0005 34.0006Z" stroke="#1A55AF" stroke-width="1.5" stroke-linecap="round" stroke-linejoin="round"/>
<path d="M20.0005 24.5006H22.4805C23.8605 24.5006 24.9805 25.6206 24.9805 27.0006C24.9805 28.3806 23.8605 29.5006 22.4805 29.5006H20.0005" stroke="#1A55AF" stroke-width="1.5" stroke-linecap="round" stroke-linejoin="round"/>
<path d="M33.9995 24.9911H30.9995" stroke="#1A55AF" stroke-width="1.5" stroke-linecap="round" stroke-linejoin="round"/>
<path d="M33.9995 29.0006H30.9995" stroke="#1A55AF" stroke-width="1.5" stroke-linecap="round" stroke-linejoin="round"/>
<path d="M22.1987 27H22.2987" stroke="#1A55AF" stroke-width="2" stroke-miterlimit="10" stroke-linecap="round" stroke-linejoin="round"/>
<rect opacity="0.1" width="55" height="55" rx="15" fill="#1A55AF"/>
</svg>
