<svg width="16" height="25" viewBox="0 0 16 25" fill="none" xmlns="http://www.w3.org/2000/svg">
<path opacity="0.4" d="M0.91 16.54H4.03C4.15133 17.1467 4.40267 17.6927 4.784 18.178C5.616 19.2527 6.88133 19.79 8.58 19.79C9.94933 19.79 10.9633 19.5473 11.622 19.062C12.2807 18.5593 12.61 17.892 12.61 17.06C12.61 16.4013 12.3067 15.8727 11.7 15.474C11.1107 15.0753 10.2613 14.7287 9.152 14.434C6.98533 13.8793 5.52933 13.42 4.784 13.056C2.72133 12.1027 1.69 10.664 1.69 8.74C1.69 7.44 2.184 6.27867 3.172 5.256C4.17733 4.23333 5.50333 3.618 7.15 3.41V0.939998H10.14V3.41C12.1853 3.79133 13.6933 4.762 14.664 6.322C15.1147 7.03267 15.4267 7.79533 15.6 8.61H12.48C12.3587 8.12467 12.142 7.69133 11.83 7.31C11.102 6.44333 9.97533 6.01 8.45 6.01C7.27133 6.01 6.37 6.25267 5.746 6.738C5.122 7.22333 4.81 7.84733 4.81 8.61C4.81 9.754 5.96267 10.638 8.268 11.262C8.45867 11.314 8.82267 11.418 9.36 11.574C9.89733 11.7127 10.2787 11.8253 10.504 11.912C10.7467 11.9813 11.1107 12.1027 11.596 12.276C12.0987 12.432 12.4713 12.5793 12.714 12.718C12.9567 12.8567 13.2687 13.0387 13.65 13.264C14.0313 13.472 14.3173 13.6973 14.508 13.94C14.716 14.1653 14.924 14.4253 15.132 14.72C15.3573 15.0147 15.5133 15.3527 15.6 15.734C15.6867 16.098 15.73 16.4967 15.73 16.93C15.73 18.386 15.21 19.5993 14.17 20.57C13.1473 21.5233 11.804 22.13 10.14 22.39V24.86H7.15V22.39C4.74067 22.026 2.99867 20.9513 1.924 19.166C1.42133 18.3513 1.08333 17.476 0.91 16.54Z" fill="#151149"/>
</svg>
