<svg width="57" height="58" viewBox="0 0 57 58" fill="none" xmlns="http://www.w3.org/2000/svg">
<rect opacity="0.1" y="0.721802" width="57" height="57" rx="10" fill="#1A55AF"/>
<path fill-rule="evenodd" clip-rule="evenodd" d="M16.989 21.3612H14.3812C13.8044 21.3612 13.3381 21.8275 13.3381 22.4043C13.3381 22.9812 13.8044 23.4474 14.3812 23.4474H15.4243V24.4905C15.4243 25.0674 15.8906 25.5336 16.4674 25.5336C17.0432 25.5336 17.5105 25.0674 17.5105 24.4905V23.3942C18.6986 23.1522 19.5967 22.0997 19.5967 20.8397C19.5967 19.4012 18.4264 18.2319 16.989 18.2319H15.9459C15.658 18.2319 15.4243 17.9972 15.4243 17.7104C15.4243 17.4235 15.658 17.1888 15.9459 17.1888H18.5536C19.1294 17.1888 19.5967 16.7226 19.5967 16.1457C19.5967 15.5689 19.1294 15.1026 18.5536 15.1026H17.5105V14.0595C17.5105 13.4827 17.0432 13.0164 16.4674 13.0164C15.8906 13.0164 15.4243 13.4827 15.4243 14.0595V15.1558C14.2352 15.3978 13.3381 16.4503 13.3381 17.7104C13.3381 19.1488 14.5075 20.3181 15.9459 20.3181H16.989C17.2758 20.3181 17.5105 20.5528 17.5105 20.8397C17.5105 21.1265 17.2758 21.3612 16.989 21.3612" fill="#1A55AF"/>
<path fill-rule="evenodd" clip-rule="evenodd" d="M34.1998 37.0078H18.5533C17.9786 37.0078 17.5102 36.5405 17.5102 35.9647V31.181L18.8589 32.5298C19.2668 32.9376 19.926 32.9376 20.3339 32.5298C20.7417 32.1219 20.7417 31.4627 20.3339 31.0548L17.2046 27.9255C16.7967 27.5177 16.1375 27.5177 15.7296 27.9255L12.6003 31.0548C12.1925 31.4627 12.1925 32.1219 12.6003 32.5298C13.0082 32.9376 13.6674 32.9376 14.0753 32.5298L15.424 31.181V35.9647C15.424 37.69 16.828 39.094 18.5533 39.094H34.1998C34.7756 39.094 35.2429 38.6277 35.2429 38.0509C35.2429 37.4741 34.7756 37.0078 34.1998 37.0078" fill="#1A55AF"/>
<path fill-rule="evenodd" clip-rule="evenodd" d="M38.8929 35.9646H41.5007C42.0775 35.9646 42.5438 35.4983 42.5438 34.9215C42.5438 34.3446 42.0775 33.8784 41.5007 33.8784H40.4576V32.8353C40.4576 32.2584 39.9913 31.7922 39.4145 31.7922C38.8387 31.7922 38.3714 32.2584 38.3714 32.8353V33.9316C37.1833 34.1736 36.2852 35.2261 36.2852 36.4861C36.2852 37.9246 37.4555 39.0939 38.8929 39.0939H39.936C40.2239 39.0939 40.4576 39.3286 40.4576 39.6154C40.4576 39.9023 40.2239 40.137 39.936 40.137H37.3283C36.7525 40.137 36.2852 40.6033 36.2852 41.1801C36.2852 41.7569 36.7525 42.2232 37.3283 42.2232H38.3714V43.2663C38.3714 43.8431 38.8387 44.3094 39.4145 44.3094C39.9913 44.3094 40.4576 43.8431 40.4576 43.2663V42.17C41.6467 41.928 42.5438 40.8755 42.5438 39.6154C42.5438 38.177 41.3745 37.0077 39.936 37.0077H38.8929C38.6061 37.0077 38.3714 36.773 38.3714 36.4861C38.3714 36.1993 38.6061 35.9646 38.8929 35.9646" fill="#1A55AF"/>
<path fill-rule="evenodd" clip-rule="evenodd" d="M43.2818 24.7961C42.8739 24.3883 42.2147 24.3883 41.8068 24.7961L40.4581 26.1448V21.3612C40.4581 19.6359 39.0541 18.2319 37.3288 18.2319H21.6823C21.1065 18.2319 20.6392 18.6981 20.6392 19.275C20.6392 19.8518 21.1065 20.3181 21.6823 20.3181H37.3288C37.9035 20.3181 38.3719 20.7854 38.3719 21.3612V26.1448L37.0232 24.7961C36.6153 24.3883 35.9561 24.3883 35.5482 24.7961C35.1404 25.204 35.1404 25.8632 35.5482 26.2711L38.6775 29.4004C39.0854 29.8082 39.7446 29.8082 40.1525 29.4004L43.2818 26.2711C43.6896 25.8632 43.6896 25.204 43.2818 24.7961" fill="#1A55AF"/>
</svg>
