<svg width="58" height="57" viewBox="0 0 58 57" fill="none" xmlns="http://www.w3.org/2000/svg">
<rect opacity="0.1" x="0.680176" width="57" height="57" rx="10" fill="#FA5F1C"/>
<path fill-rule="evenodd" clip-rule="evenodd" d="M38.8556 27.0817L35.5374 24.0744L31.0853 35.8743L38.8556 27.0817ZM30.931 30.3726L34.1178 21.9305C34.1178 21.9284 34.1189 21.9263 34.1199 21.9242L34.9294 19.7795L30.931 18.2326V30.3726ZM29.0944 35.2431H22.9628L28.3131 37.3138L29.0944 35.2431ZM27.9571 39.4136L22.2355 37.199L26.4998 41.0628L27.9571 39.4136ZM18.4135 33.1569H28.8449V14.3805H18.4135V33.1569ZM41.1017 27.6908L27.3635 43.2357C27.1789 43.4453 26.9181 43.5716 26.6396 43.5862C26.6208 43.5872 26.601 43.5882 26.5812 43.5882C26.3235 43.5882 26.0732 43.4923 25.8812 43.3181L16.6703 34.9709C16.6662 34.9678 16.6651 34.9625 16.6599 34.9584C16.6547 34.9532 16.6474 34.95 16.6432 34.9448C16.5817 34.8843 16.542 34.8092 16.4961 34.7362C16.4732 34.6986 16.4398 34.6663 16.4221 34.6277C16.42 34.6225 16.4169 34.6204 16.4158 34.6162C16.3929 34.5651 16.3918 34.5056 16.3783 34.4514C16.3762 34.4451 16.3751 34.4378 16.373 34.4305C16.3584 34.3659 16.3324 34.3054 16.3303 34.2397C16.3292 34.2313 16.3303 34.223 16.3303 34.2146C16.3303 34.2094 16.3271 34.2052 16.3271 34.2V13.3373C16.3271 12.7604 16.7945 12.2941 17.3703 12.2941H29.8879C30.4648 12.2941 30.9311 12.7604 30.9311 13.3373V15.9952L36.6464 18.2066C37.1815 18.4132 37.4486 19.013 37.2462 19.5481L36.3304 21.9755L41.0203 26.2273C41.4428 26.6112 41.4793 27.2631 41.1017 27.6908ZM22.5861 22.2039C22.5861 22.4918 22.8198 22.7254 23.1077 22.7254H24.1508C25.5893 22.7254 26.7586 23.8948 26.7586 25.3333C26.7586 26.5934 25.8615 27.6459 24.6724 27.8879V28.9842C24.6724 29.5611 24.2061 30.0274 23.6292 30.0274C23.0534 30.0274 22.5861 29.5611 22.5861 28.9842V27.9411H21.543C20.9671 27.9411 20.4998 27.4748 20.4998 26.898C20.4998 26.3211 20.9671 25.8548 21.543 25.8548H24.1518C24.4387 25.8548 24.6724 25.6212 24.6724 25.3333C24.6724 25.0464 24.4387 24.8117 24.1508 24.8117H23.1077C21.6702 24.8117 20.4998 23.6423 20.4998 22.2039C20.4998 20.9437 21.398 19.8912 22.5861 19.6492V18.5529C22.5861 17.976 23.0534 17.5097 23.6292 17.5097C24.2061 17.5097 24.6724 17.976 24.6724 18.5529V19.596H25.7155C26.2924 19.596 26.7586 20.0623 26.7586 20.6391C26.7586 21.216 26.2924 21.6823 25.7155 21.6823H23.1077C22.8198 21.6823 22.5861 21.917 22.5861 22.2039Z" fill="#FA5F1C"/>
</svg>
