<svg width="16" height="14" viewBox="0 0 16 14" fill="none" xmlns="http://www.w3.org/2000/svg">
<path d="M5.58327 12.5977H3.67357C3.2517 12.5977 2.9097 12.2557 2.9097 11.8338V4.19502M2.9097 4.19502H1.76388C1.342 4.19502 1 3.85302 1 3.43114V1.52145C1 1.09957 1.342 0.757568 1.76388 0.757568H13.9859C14.4078 0.757568 14.7498 1.09957 14.7498 1.52145V3.43114C14.7498 3.85302 14.4078 4.19502 13.9859 4.19502H12.8401M2.9097 4.19502H12.8401M12.8401 4.19502V11.8338C12.8401 12.2557 12.4981 12.5977 12.0762 12.5977H10.5485M7.87491 6.10472V12.9796M7.87491 12.9796L5.58327 10.3061M7.87491 12.9796L10.1665 10.3061" stroke="#FF4267" stroke-width="1.14582"/>
</svg>
