<svg width="55" height="55" viewBox="0 0 55 55" fill="none" xmlns="http://www.w3.org/2000/svg">
<path d="M24.4997 28.7511C24.4997 29.7211 25.2497 30.5011 26.1697 30.5011H28.0497C28.8497 30.5011 29.4997 29.8211 29.4997 28.9711C29.4997 28.0611 29.0997 27.7311 28.5097 27.5211L25.4997 26.4711C24.9097 26.2611 24.5097 25.9411 24.5097 25.0211C24.5097 24.1811 25.1597 23.4911 25.9597 23.4911H27.8397C28.7597 23.4911 29.5097 24.2711 29.5097 25.2411" stroke="#FA5F1C" stroke-width="1.5" stroke-linecap="round" stroke-linejoin="round"/>
<path d="M26.9992 22.5V31.5" stroke="#FA5F1C" stroke-width="1.5" stroke-linecap="round" stroke-linejoin="round"/>
<path d="M37.0005 27.0005C37.0005 32.5205 32.5205 37.0005 27.0005 37.0005C21.4805 37.0005 17.0005 32.5205 17.0005 27.0005C17.0005 21.4805 21.4805 17.0005 27.0005 17.0005" stroke="#FA5F1C" stroke-width="1.5" stroke-linecap="round" stroke-linejoin="round"/>
<path d="M32.0005 18V22H36.0005" stroke="#FA5F1C" stroke-width="1.5" stroke-linecap="round" stroke-linejoin="round"/>
<path d="M37.0005 17.0005L32.0005 22.0005" stroke="#FA5F1C" stroke-width="1.5" stroke-linecap="round" stroke-linejoin="round"/>
<rect opacity="0.1" width="55" height="55" rx="15" fill="#F7A181"/>
</svg>
