<svg width="17" height="14" viewBox="0 0 17 14" fill="none" xmlns="http://www.w3.org/2000/svg">
<path d="M6.41538 13.125H4.31192C3.89004 13.125 3.54804 12.783 3.54804 12.3611V4.875M3.54804 4.875H2.26382C1.84194 4.875 1.49994 4.533 1.49994 4.11112V2.26388C1.49994 1.842 1.84194 1.5 2.26382 1.5H15.4824C15.9043 1.5 16.2463 1.842 16.2463 2.26388V4.11112C16.2463 4.533 15.9043 4.875 15.4824 4.875H14.1982M3.54804 4.875H14.1982M14.1982 4.875V12.3611C14.1982 12.783 13.8562 13.125 13.4343 13.125H11.7404M8.8731 13.5V6.75M8.8731 6.75L6.41538 9.375M8.8731 6.75L11.3308 9.375" stroke="#623CE7" stroke-width="1.14582"/>
</svg>
