<svg width="17" height="16" viewBox="0 0 17 16" fill="none" xmlns="http://www.w3.org/2000/svg">
<path d="M14.3508 4.2343H13.3736L11.3508 1.04236C11.2826 0.938052 11.169 0.875465 11.0554 0.854603C10.9417 0.83374 10.8054 0.854603 10.6917 0.917189L8.37355 2.37755L7.12355 0.979776C7.05537 0.896327 6.94173 0.83374 6.80537 0.83374C6.66901 0.83374 6.55537 0.875465 6.46446 0.958914L2.94173 4.2343H1.89628C0.919006 4.2343 0.123551 4.96448 0.123551 5.86156V14.2065C0.123551 15.1036 0.919006 15.8337 1.89628 15.8337H14.3508C15.3281 15.8337 16.1236 15.1036 16.1236 14.2065V5.86156C16.1236 4.96448 15.3281 4.2343 14.3508 4.2343ZM14.8556 11.6613H12.6157C11.6384 11.6613 11 10.8971 11 10C11 9.10292 11.6384 8.40676 12.6157 8.40676H14.8556V11.6613ZM10.8054 1.85599L12.3281 4.2343H10.0099L8.94173 3.04515L10.8054 1.85599ZM6.75992 1.87686L8.85083 4.2343H4.21446L6.75992 1.87686ZM14.1236 14.779H2.03548C1.55821 14.779 1.32126 14.532 1.32126 14.0939V6.13193C1.32126 5.69382 1.64747 5.32881 2.12474 5.32881H14.0141C14.4914 5.32881 14.8556 5.56183 14.8556 5.99994V7.59313H12.6157C11.1384 7.59313 10.0407 8.64395 10.0407 10C10.0407 11.3561 11.0227 12.4958 12.5 12.4958H14.9065L14.8556 14.0939C14.8556 14.5528 14.6008 14.779 14.1236 14.779Z" fill="#313131"/>
<path d="M13.1591 10.6701C13.5231 10.6701 13.8182 10.3746 13.8182 10.0101C13.8182 9.64559 13.5231 9.3501 13.1591 9.3501C12.7951 9.3501 12.5 9.64559 12.5 10.0101C12.5 10.3746 12.7951 10.6701 13.1591 10.6701Z" fill="#313131"/>
</svg>
