<svg width="36" height="36" viewBox="0 0 36 36" fill="none" xmlns="http://www.w3.org/2000/svg">
<g opacity="0.1">
<circle cx="18" cy="18" r="18" fill="#FF4267"/>
</g>
<path d="M20.616 15.64L18.96 25H15.9L17.556 15.64H20.616ZM20.67 14.182C20.358 14.494 19.956 14.65 19.464 14.65C18.972 14.65 18.588 14.53 18.312 14.29C18.036 14.038 17.898 13.708 17.898 13.3C17.898 12.796 18.054 12.388 18.366 12.076C18.69 11.752 19.098 11.59 19.59 11.59C20.082 11.59 20.466 11.716 20.742 11.968C21.018 12.208 21.156 12.532 21.156 12.94C21.156 13.444 20.994 13.858 20.67 14.182Z" fill="#FF4267"/>
</svg>
