<svg width="13" height="13" viewBox="0 0 13 13" fill="none" xmlns="http://www.w3.org/2000/svg">
<path d="M6.50015 0C2.91152 0 0 2.90785 0 6.49696C0 10.0895 2.91152 13.0008 6.50012 13.0008C10.0909 13.0008 13 10.0895 13 6.49696C13 2.90785 10.0907 0 6.50015 0ZM6.49988 2.57014C6.87086 2.57014 7.1716 2.87088 7.1716 3.24186C7.1716 3.61283 6.87086 3.91358 6.49988 3.91358C6.12866 3.91358 5.82864 3.61283 5.82864 3.24186C5.82843 2.87064 6.12866 2.57014 6.49988 2.57014ZM7.17211 9.45201C7.17211 9.85749 6.87137 10.1861 6.50039 10.1861C6.12941 10.1861 5.82867 9.85749 5.82867 9.45201V5.33899C5.82867 4.93352 6.12941 4.60487 6.50039 4.60487C6.87137 4.60487 7.17211 4.93352 7.17211 5.33899V9.45201Z" fill="#FF4267"/>
</svg>
