<svg width="11" height="14" viewBox="0 0 11 14" fill="none" xmlns="http://www.w3.org/2000/svg">
<path d="M8.24706 1.68434L6.70072 0L5.15439 1.68434L3.60805 0L2.06172 1.68434L-6.10352e-05 0V12.9133C-6.10352e-05 13.2238 0.230858 13.4747 0.515384 13.4747H9.79339C10.0779 13.4747 10.3088 13.2238 10.3088 12.9133V0L8.24706 1.68434ZM5.66983 10.6675H2.06172V9.54461H5.66983V10.6675ZM5.66983 8.42172H2.06172V7.29882H5.66983V8.42172ZM5.66983 6.17593H2.06172V5.05303H5.66983V6.17593ZM8.24706 10.6675H6.70072V9.54461H8.24706V10.6675ZM8.24706 8.42172H6.70072V7.29882H8.24706V8.42172ZM8.24706 6.17593H6.70072V5.05303H8.24706V6.17593Z" fill="black"/>
</svg>
