<svg width="16" height="14" viewBox="0 0 16 14" fill="none" xmlns="http://www.w3.org/2000/svg">
<path d="M5.58327 12.6604H3.67357C3.2517 12.6604 2.9097 12.3184 2.9097 11.8966V4.25777M2.9097 4.25777H1.76388C1.342 4.25777 1 3.91577 1 3.49389V1.58419C1 1.16231 1.342 0.820312 1.76388 0.820312H13.9859C14.4078 0.820312 14.7498 1.16231 14.7498 1.58419V3.49389C14.7498 3.91577 14.4078 4.25777 13.9859 4.25777H12.8401M2.9097 4.25777H12.8401M12.8401 4.25777V11.8966C12.8401 12.3184 12.4981 12.6604 12.0762 12.6604H10.5485M7.87491 6.16746V13.0424M7.87491 13.0424L5.58327 10.3688M7.87491 13.0424L10.1665 10.3688" stroke="#313131" stroke-width="1.14582"/>
</svg>
