<svg width="35" height="22" viewBox="0 0 35 22" fill="none" xmlns="http://www.w3.org/2000/svg">
<rect x="12.563" y="2.27014" width="10.2031" height="16.68" fill="#F26122"/>
<path d="M13.6609 10.6102C13.644 7.3637 15.1177 4.28922 17.6585 2.27017C13.3113 -1.15054 7.06674 -0.653815 3.31432 3.41117C-0.438106 7.47616 -0.438106 13.7442 3.31432 17.8092C7.06674 21.8741 13.3113 22.3709 17.6585 18.9502C15.1177 16.9311 13.644 13.8566 13.6609 10.6102Z" fill="#EA1D25"/>
<path fill-rule="evenodd" clip-rule="evenodd" d="M33.7924 16.8401V17.1801H33.7324V16.8401H33.5926V16.7701H33.9422V16.8401H33.7924ZM34.4717 16.7703V17.1803H34.4018V16.8703L34.2919 17.1403H34.212L34.0922 16.8703V17.1803H34.0222V16.7703H34.1221L34.252 17.0603L34.3718 16.7703H34.4717Z" fill="#F69E1E"/>
<path d="M34.8104 10.6102C34.8078 14.6696 32.4906 18.3716 28.8418 20.146C25.193 21.9205 20.8522 21.4562 17.6606 18.9502C22.2579 15.3282 23.054 8.66451 19.4395 4.06021C18.9214 3.39349 18.324 2.79239 17.6606 2.27022C20.8522 -0.23579 25.193 -0.700041 28.8418 1.07439C32.4906 2.84882 34.8078 6.55087 34.8104 10.6102Z" fill="#F69E1E"/>
</svg>
