<svg width="12" height="12" viewBox="0 0 12 12" fill="none" xmlns="http://www.w3.org/2000/svg">
<path d="M1.57463 11.406L0.608633 10.454L10.4226 0.276L11.3886 1.214L1.57463 11.406ZM1.88263 5.68L0.328633 4.098V2.264L1.88263 0.681999H4.26263L5.81663 2.264V4.098L4.26263 5.68H1.88263ZM2.68063 4.294H3.45063L4.12263 3.636V2.726L3.45063 2.068H2.68063L2.02263 2.726V3.636L2.68063 4.294ZM7.73463 11L6.18063 9.418V7.584L7.73463 5.988H10.1146L11.6686 7.584V9.418L10.1146 11H7.73463ZM8.53263 9.614H9.30263L9.97463 8.956V8.046L9.30263 7.374H8.53263L7.87463 8.046V8.956L8.53263 9.614Z" fill="#A9B8CD"/>
</svg>
