<svg width="58" height="57" viewBox="0 0 58 57" fill="none" xmlns="http://www.w3.org/2000/svg">
<rect opacity="0.1" x="0.680176" y="-0.000549316" width="57" height="57" rx="10" fill="#427A0A"/>
<path fill-rule="evenodd" clip-rule="evenodd" d="M18.1901 41.5015H20.2764V31.0702H18.1901V41.5015ZM21.3194 43.5877H17.1469C16.57 43.5877 16.1038 43.1215 16.1038 42.5446V30.027C16.1038 29.4501 16.57 28.9838 17.1469 28.9838H21.3194C21.8963 28.9838 22.3626 29.4501 22.3626 30.027V42.5446C22.3626 43.1215 21.8963 43.5877 21.3194 43.5877Z" fill="#427A0A"/>
<path fill-rule="evenodd" clip-rule="evenodd" d="M27.5782 41.5015H29.6645V22.725H27.5782V41.5015ZM30.7076 43.5877H26.5351C25.9582 43.5877 25.4919 43.1214 25.4919 42.5446V21.6818C25.4919 21.105 25.9582 20.6387 26.5351 20.6387H30.7076C31.2845 20.6387 31.7508 21.105 31.7508 21.6818V42.5446C31.7508 43.1214 31.2845 43.5877 30.7076 43.5877Z" fill="#427A0A"/>
<path fill-rule="evenodd" clip-rule="evenodd" d="M36.9667 41.5015H39.053V14.3799H36.9667V41.5015ZM40.0961 43.5877H35.9235C35.3467 43.5877 34.8804 43.1214 34.8804 42.5446V13.3367C34.8804 12.7599 35.3467 12.2936 35.9235 12.2936H40.0961C40.6729 12.2936 41.1392 12.7599 41.1392 13.3367V42.5446C41.1392 43.1214 40.6729 43.5877 40.0961 43.5877Z" fill="#427A0A"/>
</svg>
